<svg width="119" height="58" viewBox="0 0 119 58" fill="none" xmlns="http://www.w3.org/2000/svg">
<path d="M61.677 40.9336V57.6991H65.2671H71.2622V54.9978H65.2671V50.5188H70.0597V47.8175H65.2671V43.6349H71.2622L71.8548 40.9336H65.2671H61.677Z" fill="white"/>
<path d="M33.5314 40.9336V57.6991H37.1389H43.1166V54.9978H37.1389V50.5188H41.9141V47.8175H37.1389V43.6349H43.1166L43.7092 40.9336H37.1389H33.5314Z" fill="white"/>
<path d="M25.4619 40.9336H22.7606H19.1705V57.6991H22.7606V51.7039H25.4619C28.4421 51.7039 31.1434 49.9089 31.1434 46.3188C31.1434 42.7286 28.4247 40.9336 25.4619 40.9336ZM24.852 49.0201H22.7606V43.6349H24.852C26.1765 43.6349 27.2396 44.6806 27.2396 46.3362C27.257 47.9744 26.1765 49.0201 24.852 49.0201Z" fill="white"/>
<path d="M58.6788 46.3188C58.6788 42.7286 55.9601 40.9336 52.9973 40.9336H50.296H46.7059V57.6991H50.296V51.7039H51.4114L55.0712 57.6991H59.2539L55.1061 51.3728C57.1626 50.6931 58.6788 49.0201 58.6788 46.3188ZM50.296 43.6349H52.3874C53.7119 43.6349 54.775 44.6806 54.775 46.3362C54.775 47.9744 53.6944 49.0375 52.3874 49.0375H50.296V43.6349Z" fill="white"/>
<path d="M86.8251 40.9336H82.3288H78.7387H74.2423V43.6349H78.7387V57.6991H82.3288V43.6349H86.2152L86.8251 40.9336Z" fill="white"/>
<path d="M94.0048 40.6406C89.5085 40.6406 86.8246 43.9345 86.8246 49.3196C86.8246 54.7048 89.5259 57.9986 94.0048 57.9986C98.5012 57.9986 101.185 54.7048 101.185 49.3196C101.185 43.9345 98.5012 40.6406 94.0048 40.6406ZM94.0048 55.0011C91.6172 55.0011 90.711 53.5023 90.711 49.3196C90.711 45.137 91.6172 43.6382 94.0048 43.6382C96.3924 43.6382 97.2986 45.137 97.2986 49.3196C97.2986 53.5023 96.3924 55.0011 94.0048 55.0011Z" fill="white"/>
<path d="M48.4836 27.4395C44.876 27.4395 41.5473 25.8536 39.2992 23.1L40.8154 22.4029L35.4476 17.0352V24.8253L36.8593 24.1805C39.5954 27.8403 43.8304 30.0014 48.4661 30.0014C53.1716 30.0014 57.2497 27.4918 58.9228 25.505L57.1103 23.6925C55.3327 25.6445 52.248 27.4395 48.4836 27.4395Z" fill="white"/>
<path d="M59.8115 6.50566C57.0754 3.0724 52.9624 1.05078 48.4835 1.05078C44.754 1.05078 41.1813 2.49728 38.48 5.07658L40.2925 6.92392C42.5058 4.81517 45.4162 3.64751 48.4835 3.64751C51.9342 3.64751 55.106 5.09401 57.3542 7.62103L55.8031 8.31814L61.4323 13.5465V5.77369L59.8115 6.50566Z" fill="white"/>
<path d="M79.9057 23.1268C77.9363 23.1268 76.9081 22.2379 76.0716 21.5234C75.3745 20.9309 74.8691 20.4952 73.7537 20.4952C72.6383 20.4952 72.1329 20.9309 71.4358 21.5234C70.5993 22.2379 69.571 23.1268 67.6017 23.1268C65.6324 23.1268 64.6041 22.2379 63.7676 21.5234C63.0705 20.9309 62.5651 20.4952 61.4497 20.4952V17.8984C63.419 17.8984 64.4473 18.7872 65.2838 19.5018C65.9809 20.0943 66.4863 20.53 67.6017 20.53C68.7171 20.53 69.2225 20.0943 69.9196 19.5018C70.7561 18.7872 71.7843 17.8984 73.7537 17.8984C75.723 17.8984 76.7513 18.7872 77.5878 19.5018C78.2849 20.0943 78.7903 20.53 79.9057 20.53C81.021 20.53 81.5264 20.0943 82.2236 19.5018C83.0601 18.7872 84.0883 17.8984 86.0577 17.8984V20.4952C84.9423 20.4952 84.4369 20.9309 83.7398 21.5234C82.9207 22.2379 81.875 23.1268 79.9057 23.1268Z" fill="white"/>
<path d="M79.9057 28.3182C77.9363 28.3182 76.9081 27.4293 76.0716 26.7148C75.3745 26.1223 74.8691 25.6866 73.7537 25.6866C72.6383 25.6866 72.1329 26.1223 71.4358 26.7148C70.5993 27.4293 69.571 28.3182 67.6017 28.3182C65.6324 28.3182 64.6041 27.4293 63.7676 26.7148C63.0705 26.1223 62.5651 25.6866 61.4497 25.6866V23.0898C63.419 23.0898 64.4473 23.9787 65.2838 24.6932C65.9809 25.2857 66.4863 25.7214 67.6017 25.7214C68.7171 25.7214 69.2225 25.2857 69.9196 24.6932C70.7561 23.9787 71.7843 23.0898 73.7537 23.0898C75.723 23.0898 76.7513 23.9787 77.5878 24.6932C78.2849 25.2857 78.7903 25.7214 79.9057 25.7214C81.021 25.7214 81.5264 25.2857 82.2236 24.6932C83.0601 23.9787 84.0883 23.0898 86.0577 23.0898V25.6866C84.9423 25.6866 84.4369 26.1223 83.7398 26.7148C82.9207 27.4293 81.875 28.3182 79.9057 28.3182Z" fill="white"/>
<path d="M31.1433 2.68359L17.6891 16.1378L19.519 17.9677L23.3531 14.1336V23.5446H0V26.1413H25.9499V11.5369L31.1433 6.34342L42.7676 17.9677L44.5975 16.1378L31.1433 2.68359Z" fill="white"/>
<path d="M99.7388 23.9283L86.0755 3.90381L82.1891 9.53296L75.6885 0L66.1904 14.0293H69.3274L75.706 4.61835L82.1717 14.1165L86.0755 8.4873L98.362 26.525H118.508V23.9283H99.7388Z" fill="white"/>
</svg>
