<svg width="526" height="286" viewBox="0 0 526 286" fill="none" xmlns="http://www.w3.org/2000/svg">
<g opacity="0.15">
<path d="M433.041 14.0093L402.68 44.3711L433.041 74.7329L463.403 44.3711L433.041 14.0093Z" stroke="white" stroke-width="20" stroke-miterlimit="10"/>
<path d="M263.024 14.0015L232.662 44.3633L263.024 74.7251L293.386 44.3633L263.024 14.0015Z" stroke="white" stroke-width="20" stroke-miterlimit="10"/>
<path d="M93.0063 14.0015L62.6445 44.3633L93.0063 74.7251L123.368 44.3633L93.0063 14.0015Z" stroke="white" stroke-width="20" stroke-miterlimit="10"/>
<path d="M8 99.0093L93.0093 14L178.019 99.0093L263.039 14L348.048 99.0093L433.057 14L518.066 99.0093" stroke="white" stroke-width="20" stroke-miterlimit="10"/>
<path d="M433.046 74.7242L402.684 105.086L433.046 135.448L463.408 105.086L433.046 74.7242Z" stroke="white" stroke-width="20" stroke-miterlimit="10"/>
<path d="M263.029 74.7242L232.667 105.086L263.029 135.448L293.391 105.086L263.029 74.7242Z" stroke="white" stroke-width="20" stroke-miterlimit="10"/>
<path d="M93.0114 74.7242L62.6497 105.086L93.0114 135.448L123.373 105.086L93.0114 74.7242Z" stroke="white" stroke-width="20" stroke-miterlimit="10"/>
<path d="M8 159.732L93.0093 74.7227L178.019 159.732L263.039 74.7227L348.048 159.732L433.057 74.7227L518.066 159.732" stroke="white" stroke-width="20" stroke-miterlimit="10"/>
<path d="M433.044 135.451L402.682 165.812L433.044 196.174L463.405 165.812L433.044 135.451Z" stroke="white" stroke-width="20" stroke-miterlimit="10"/>
<path d="M263.027 135.451L232.665 165.812L263.027 196.174L293.388 165.812L263.027 135.451Z" stroke="white" stroke-width="20" stroke-miterlimit="10"/>
<path d="M93.009 135.447L62.6472 165.809L93.009 196.17L123.371 165.809L93.009 135.447Z" stroke="white" stroke-width="20" stroke-miterlimit="10"/>
<path d="M8 220.455L93.0093 135.445L178.019 220.455L263.039 135.445L348.048 220.455L433.057 135.445L518.066 220.455" stroke="white" stroke-width="20" stroke-miterlimit="10"/>
<path d="M93.0095 196.176V287.258" stroke="white" stroke-width="20" stroke-miterlimit="10"/>
<path d="M263.039 196.176V287.258" stroke="white" stroke-width="20" stroke-miterlimit="10"/>
<path d="M433.057 196.176V287.258" stroke="white" stroke-width="20" stroke-miterlimit="10"/>
</g>
</svg>
