<svg width="877" height="201" viewBox="0 0 877 201" fill="none" xmlns="http://www.w3.org/2000/svg">
<g opacity="0.08" clip-path="url(#clip0_2_410)">
<path d="M-43 4.73792C33.6544 4.73792 33.6544 54.8763 110.338 54.8763C186.993 54.8763 186.993 4.73792 263.647 4.73792C340.301 4.73792 340.301 54.8763 416.985 54.8763C493.64 54.8763 493.64 4.73792 570.323 4.73792C647.007 4.73792 647.007 54.8763 723.662 54.8763C800.316 54.8763 800.346 4.73792 877 4.73792" stroke="#B5CB37" stroke-width="10" stroke-miterlimit="10"/>
<path d="M-43 79.9308C33.6544 79.9308 33.6544 130.069 110.338 130.069C186.993 130.069 186.993 79.9308 263.676 79.9308C340.331 79.9308 340.331 130.069 417.015 130.069C493.669 130.069 493.669 79.9308 570.353 79.9308C647.037 79.9308 647.037 130.069 723.691 130.069C800.346 130.069 800.375 79.9308 877.029 79.9308" stroke="#B5CB37" stroke-width="10" stroke-miterlimit="10"/>
<path d="M-43 155.124C33.6544 155.124 33.6544 205.262 110.338 205.262C186.993 205.262 186.993 155.124 263.676 155.124C340.331 155.124 340.331 205.262 417.015 205.262C493.669 205.262 493.669 155.124 570.353 155.124C647.037 155.124 647.037 205.262 723.691 205.262C800.346 205.262 800.375 155.124 877.029 155.124" stroke="#B5CB37" stroke-width="10" stroke-miterlimit="10"/>
</g>
<defs>
<clipPath id="clip0_2_410">
<rect width="920" height="230" fill="white" transform="translate(-43 -10)"/>
</clipPath>
</defs>
</svg>
