<svg width="110" height="22" viewBox="0 0 110 22" fill="none" xmlns="http://www.w3.org/2000/svg">
<rect width="22" height="22" rx="11" fill="#262626"/>
<path d="M8.70894 11C8.70894 9.7344 9.73464 8.70815 11.0002 8.70815C12.2658 8.70815 13.2921 9.7344 13.2921 11C13.2921 12.2656 12.2658 13.2919 11.0002 13.2919C9.73464 13.2919 8.70894 12.2656 8.70894 11ZM7.47001 11C7.47001 12.9497 9.05049 14.5302 11.0002 14.5302C12.95 14.5302 14.5305 12.9497 14.5305 11C14.5305 9.05025 12.95 7.46977 11.0002 7.46977C9.05049 7.46977 7.47001 9.05025 7.47001 11ZM13.8452 7.32979C13.8452 7.49296 13.8935 7.65249 13.9841 7.7882C14.0747 7.9239 14.2035 8.0297 14.3542 8.0922C14.5049 8.1547 14.6708 8.17111 14.8309 8.13934C14.9909 8.10757 15.1379 8.02905 15.2534 7.91372C15.3688 7.79839 15.4474 7.65142 15.4793 7.4914C15.5112 7.33138 15.4949 7.16549 15.4326 7.01472C15.3702 6.86394 15.2645 6.73505 15.1288 6.64435C14.9932 6.55364 14.8337 6.50519 14.6706 6.50513H14.6702C14.4515 6.50523 14.2418 6.59213 14.0871 6.74676C13.9324 6.90138 13.8454 7.11108 13.8452 7.32979ZM8.22274 16.5961C7.55246 16.5656 7.18814 16.4539 6.94603 16.3596C6.62505 16.2346 6.39603 16.0858 6.15524 15.8453C5.91445 15.6049 5.7654 15.3761 5.64099 15.0551C5.54661 14.8131 5.43496 14.4487 5.40449 13.7784C5.37116 13.0537 5.3645 12.836 5.3645 11.0001C5.3645 9.1641 5.37171 8.94701 5.40449 8.22173C5.43501 7.55144 5.54749 7.18773 5.64099 6.94501C5.76595 6.62403 5.91478 6.39502 6.15524 6.15423C6.3957 5.91344 6.6245 5.76439 6.94603 5.63998C7.18803 5.5456 7.55246 5.43394 8.22274 5.40347C8.94742 5.37014 9.16511 5.36349 11.0002 5.36349C12.8354 5.36349 13.0533 5.37069 13.7786 5.40347C14.4489 5.434 14.8126 5.54648 15.0553 5.63998C15.3763 5.76439 15.6053 5.91377 15.8461 6.15423C16.0869 6.39469 16.2354 6.62403 16.3603 6.94501C16.4547 7.18701 16.5664 7.55144 16.5968 8.22173C16.6302 8.94701 16.6368 9.1641 16.6368 11.0001C16.6368 12.836 16.6302 13.0531 16.5968 13.7784C16.5663 14.4487 16.4541 14.813 16.3603 15.0551C16.2354 15.3761 16.0865 15.6051 15.8461 15.8453C15.6056 16.0856 15.3763 16.2346 15.0553 16.3596C14.8133 16.454 14.4489 16.5656 13.7786 16.5961C13.0539 16.6294 12.8362 16.6361 11.0002 16.6361C9.16429 16.6361 8.9472 16.6294 8.22274 16.5961ZM8.16582 4.16663C7.43393 4.19997 6.93382 4.31601 6.49706 4.48596C6.04474 4.66147 5.66183 4.89692 5.2792 5.27895C4.89656 5.66098 4.66171 6.0445 4.48621 6.49682C4.31626 6.93385 4.20021 7.43369 4.16688 8.16558C4.133 8.89861 4.12524 9.13297 4.12524 11C4.12524 12.867 4.133 13.1014 4.16688 13.8344C4.20021 14.5664 4.31626 15.0661 4.48621 15.5032C4.66171 15.9552 4.89662 16.3392 5.2792 16.721C5.66178 17.1029 6.04474 17.338 6.49706 17.514C6.93464 17.684 7.43393 17.8 8.16582 17.8334C8.89924 17.8667 9.13321 17.875 11.0002 17.875C12.8673 17.875 13.1016 17.8672 13.8347 17.8334C14.5666 17.8 15.0664 17.684 15.5034 17.514C15.9555 17.338 16.3387 17.1031 16.7213 16.721C17.1039 16.339 17.3383 15.9552 17.5143 15.5032C17.6842 15.0661 17.8008 14.5663 17.8336 13.8344C17.8669 13.1008 17.8747 12.867 17.8747 11C17.8747 9.13297 17.8669 8.89861 17.8336 8.16558C17.8003 7.43363 17.6842 6.93357 17.5143 6.49682C17.3383 6.04477 17.1033 5.66159 16.7213 5.27895C16.3393 4.89632 15.9555 4.66147 15.504 4.48596C15.0664 4.31601 14.5666 4.19941 13.8352 4.16663C13.1022 4.13331 12.8678 4.125 11.0008 4.125C9.13376 4.125 8.89924 4.13276 8.16582 4.16663Z" fill="white"/>
<rect x="44" width="22" height="22" rx="11" fill="#FF0000"/>
<path fill-rule="evenodd" clip-rule="evenodd" d="M60.3799 6.48198C60.9689 6.64055 61.4332 7.10492 61.5918 7.69388C61.8863 8.76986 61.8749 11.0124 61.8749 11.0124C61.8749 11.0124 61.8749 13.2437 61.5918 14.3197C61.4332 14.9086 60.9689 15.373 60.3799 15.5316C59.3039 15.8147 55 15.8147 55 15.8147C55 15.8147 50.7074 15.8147 49.6201 15.5202C49.0311 15.3617 48.5667 14.8973 48.4082 14.3083C48.125 13.2437 48.125 11.0011 48.125 11.0011C48.125 11.0011 48.125 8.76986 48.4082 7.69388C48.5667 7.10492 49.0424 6.62922 49.6201 6.47065C50.696 6.1875 55 6.1875 55 6.1875C55 6.1875 59.3039 6.1875 60.3799 6.48198ZM57.2086 11.0011L53.6295 13.0625V8.93975L57.2086 11.0011Z" fill="white"/>
<rect x="88" width="22" height="22" rx="11" fill="#4267B2"/>
<path d="M99.7344 18.3346V11.6444H101.98L102.316 9.03712H99.7344V7.37246C99.7344 6.61761 99.944 6.10314 101.027 6.10314L102.407 6.1025V3.77059C102.168 3.73894 101.349 3.66797 100.395 3.66797C98.4048 3.66797 97.042 4.88297 97.042 7.11437V9.03719H94.7905V11.6445H97.0419V18.3346L99.7344 18.3346Z" fill="white"/>
</svg>
